<svg width="24" height="24" viewBox="0 0 24 24" fill="none" xmlns="http://www.w3.org/2000/svg">
<path d="M12 16C13.0609 16 14.0783 15.5786 14.8284 14.8284C15.5786 14.0783 16 13.0609 16 12C16 10.9391 15.5786 9.92172 14.8284 9.17157C14.0783 8.42143 13.0609 8 12 8C10.9391 8 9.92172 8.42143 9.17157 9.17157C8.42143 9.92172 8 10.9391 8 12C8 13.0609 8.42143 14.0783 9.17157 14.8284C9.92172 15.5786 10.9391 16 12 16Z" fill="black" fill-opacity="0.6"/>
<path fill-rule="evenodd" clip-rule="evenodd" d="M12 0C12.3536 0 12.6928 0.140476 12.9428 0.390524C13.1929 0.640573 13.3333 0.979711 13.3333 1.33333V2.76C15.3283 3.04748 17.1765 3.97304 18.6018 5.39824C20.027 6.82345 20.9525 8.67173 21.24 10.6667H22.6667C23.0203 10.6667 23.3594 10.8071 23.6095 11.0572C23.8595 11.3072 24 11.6464 24 12C24 12.3536 23.8595 12.6928 23.6095 12.9428C23.3594 13.1929 23.0203 13.3333 22.6667 13.3333H21.24C20.9525 15.3283 20.027 17.1765 18.6018 18.6018C17.1765 20.027 15.3283 20.9525 13.3333 21.24V22.6667C13.3333 23.0203 13.1929 23.3594 12.9428 23.6095C12.6928 23.8595 12.3536 24 12 24C11.6464 24 11.3072 23.8595 11.0572 23.6095C10.8071 23.3594 10.6667 23.0203 10.6667 22.6667V21.24C8.67173 20.9525 6.82345 20.027 5.39824 18.6018C3.97304 17.1765 3.04748 15.3283 2.76 13.3333H1.33333C0.979711 13.3333 0.640573 13.1929 0.390524 12.9428C0.140476 12.6928 0 12.3536 0 12C0 11.6464 0.140476 11.3072 0.390524 11.0572C0.640573 10.8071 0.979711 10.6667 1.33333 10.6667H2.76C3.04851 8.67214 3.9744 6.82443 5.39942 5.39942C6.82443 3.9744 8.67214 3.04851 10.6667 2.76V1.33333C10.6667 0.979711 10.8071 0.640573 11.0572 0.390524C11.3072 0.140476 11.6464 0 12 0ZM5.33333 12C5.33333 10.2319 6.03571 8.5362 7.28595 7.28595C8.5362 6.03571 10.2319 5.33333 12 5.33333C13.7681 5.33333 15.4638 6.03571 16.714 7.28595C17.9643 8.5362 18.6667 10.2319 18.6667 12C18.6667 13.7681 17.9643 15.4638 16.714 16.714C15.4638 17.9643 13.7681 18.6667 12 18.6667C10.2319 18.6667 8.5362 17.9643 7.28595 16.714C6.03571 15.4638 5.33333 13.7681 5.33333 12Z" fill="black" fill-opacity="0.6"/>
</svg>
